Coordinates
version=1
nRows=8
nColumns=36
inDegrees=yes

Units are S.I. units (second, meters, Newtons, ...)
If the header above contains a line with 'inDegrees', this indicates whether rotational values are in degrees (yes) or radians (no).

endheader
time	pelvis_tilt	pelvis_list	pelvis_rotation	pelvis_tx	pelvis_ty	pelvis_tz	hip_flexion_r	hip_adduction_r	hip_rotation_r	knee_angle_r	knee_angle_r_beta	ankle_angle_r	subtalar_angle_r	mtp_angle_r	hip_flexion_l	hip_adduction_l	hip_rotation_l	knee_angle_l	knee_angle_l_beta	ankle_angle_l	subtalar_angle_l	mtp_angle_l	lumbar_extension	lumbar_bending	lumbar_rotation	arm_flex_r	arm_add_r	arm_rot_r	elbow_flex_r	pro_sup_r	arm_flex_l	arm_add_l	arm_rot_l	elbow_flex_l	pro_sup_l
      1.98333330	    -30.25032985	     -1.33936949	      4.49905633	      0.66133658	      0.54277965	      0.08914815	    103.35898221	    -19.73946130	      1.85400429	    106.68877696	      1.86207043	     27.19910502	    -21.66075441	     -7.49999987	    101.84548643	    -23.69408672	     -3.13797403	    103.01104543	      1.79788191	     26.82269738	     -6.98148032	     -7.49999987	    -28.52885059	     -3.75032080	     -3.57281313	     95.60126403	     13.73372202	     69.02344585	    126.37159140	     83.10516543	     94.84359839	     12.17718500	     75.00795637	    121.30041643	     79.04760359
      2.00000000	    -30.22726652	     -0.83069793	      4.28505269	      0.66219493	      0.55575509	      0.08767298	    101.90423473	    -19.17387893	      1.70418479	    104.55594654	      1.82484552	     26.34306449	    -21.82899163	     -7.49999987	     99.62427414	    -23.70981753	     -4.51221916	    100.42530276	      1.75275219	     26.32623087	     -7.09887125	     -7.49999987	    -28.26405840	     -4.35672218	     -3.31232587	     95.29417690	     13.56307064	     69.54793019	    126.47373588	     83.39162738	     94.79793824	     12.21995794	     74.66644240	    121.43667181	     79.30349252
      2.01666670	    -30.00570084	     -0.27059189	      4.20424316	      0.66767962	      0.56540099	      0.08464142	    100.48491142	    -18.96640279	      1.93457038	    102.82283164	      1.79459696	     25.14848207	    -22.63068428	     -7.49999987	     97.27937124	    -23.58533894	     -5.93817190	     98.33635777	      1.71629322	     26.19696813	     -7.43776359	     -7.49999987	    -28.06439458	     -4.92034625	     -3.51804395	     95.37409155	     13.84350217	     70.18873031	    126.91715224	     84.31401784	     94.22825454	     12.13071327	     74.70319513	    121.60139153	     80.06560094
      2.03333330	    -29.68034236	      0.00819326	      3.91819968	      0.67311698	      0.57963166	      0.08739902	     98.25463343	    -18.58996810	      1.51226015	    100.66109034	      1.75686746	     24.93678105	    -22.29511983	     -7.49999987	     94.63319201	    -23.78581001	     -7.16678161	     96.11980462	      1.67760707	     25.98554083	     -7.47650305	     -7.49999987	    -27.59369662	     -5.24156059	     -2.97699038	     94.04398514	     14.19949062	     70.96228921	    126.87881777	     84.56386918	     93.13932369	     12.22222009	     75.25743060	    121.74143077	     80.24384074
      2.05000000	    -29.27484522	      0.49471520	      3.58568330	      0.67754997	      0.58683174	      0.08509828	     96.31770067	    -18.44820817	      1.51791652	     99.13975117	      1.73031508	     25.15907428	    -21.90633551	     -7.49999987	     92.20304870	    -23.93381924	     -8.44528216	     94.67581706	      1.65240473	     25.87214861	     -7.83599770	     -7.49999987	    -26.71427405	     -5.63642448	     -3.16507974	     93.15413354	     15.20547758	     71.42931262	    126.67465902	     91.94923173	     92.18629941	     11.26991759	     74.71178984	    122.06522456	     84.96830179
      2.06666670	    -28.85161250	      0.86695246	      3.35718442	      0.67642511	      0.60387283	      0.08591199	     93.98900049	    -18.29097429	      1.28201999	     96.68693585	      1.68750537	     25.16000331	    -21.15406418	     -7.49999987	     89.57816945	    -23.85880440	     -9.95156271	     92.43498262	      1.61329479	     25.15905938	     -8.35107259	     -7.49999987	    -26.29572375	     -6.15513737	     -3.07597938	     92.37339946	     15.49807742	     72.03812714	    126.60768765	     90.40015221	     91.65944401	     11.11877458	     75.23276791	    121.78617476	     83.72102923
      2.08333330	    -28.47815011	      0.94943701	      3.24503289	      0.67634723	      0.61248171	      0.08596622	     91.99824284	    -18.25294434	      0.72664259	     94.63293482	      1.65165629	     24.91084838	    -21.14420972	     -7.49999987	     87.42688688	    -23.64182130	    -10.78214860	     90.56925051	      1.58073162	     24.81372328	     -8.57112724	     -7.49999987	    -25.48531052	     -6.17402077	     -2.43992912	     91.99397656	     15.90326220	     71.84622019	    126.20029312	     89.12359338	     91.15949653	     12.12676211	     75.61546632	    121.53918082	     82.39566802
      2.10000000	    -27.99349874	      1.14640632	      3.05408641	      0.68153000	      0.62707308	      0.08830185	     89.55681925	    -17.96792344	      0.23711662	     92.27707782	      1.61053883	     25.28492314	    -20.46377598	     -7.49999987	     84.76900130	    -23.59932639	    -11.87324142	     88.32483943	      1.54155926	     24.27461954	     -8.53763207	     -7.49999987	    -25.16845653	     -6.58994548	     -2.19528921	     92.15572235	     15.94239400	     71.31172433	    126.15949562	     93.71362581	     91.67975380	     11.71950739	     75.77452145	    121.55290820	     83.68610255
